<svg version="1.1" xmlns="http://www.w3.org/2000/svg" viewBox="0 0 1097 618" width="2194" height="1236">
  <!-- svg-source:excalidraw -->
  
  <defs>
    <style>
      @font-face {
        font-family: "Virgil";
        src: url("https://excalidraw.com/Virgil.woff2");
      }
      @font-face {
        font-family: "Cascadia";
        src: url("https://excalidraw.com/Cascadia.woff2");
      }
    </style>
  </defs>
  <rect x="0" y="0" width="1097" height="618" fill="#ffffff"></rect><g stroke-linecap="round" transform="translate(14 163) rotate(0 536 175)"><path d="M1.66 1.14 L1073.88 -1.81 L1070.93 350.19 L0.56 350.9" stroke="none" stroke-width="0" fill="#ced4da"></path><path d="M-0.79 -0.35 C255.83 -0.6, 513.78 -1.16, 1072.09 0.13 M0.21 -0.16 C410.13 -0.44, 820.82 -0.27, 1072.01 -0.32 M1073.03 1.19 C1070.95 137.59, 1072.19 274.77, 1071.46 350.16 M1071.36 0.48 C1070.78 119.72, 1070.28 239.57, 1071.61 349.69 M1071.46 349.25 C766.9 346.54, 462.42 345.9, 0.24 350 M1071.83 350.34 C720.36 348.98, 368.57 349.31, 0.4 349.99 M0.53 350.9 C2.2 275.85, 0.14 200.79, 1.12 0.82 M0.58 350.03 C0.83 256.73, 0.51 163.97, 0.51 0.58" stroke="#000000" stroke-width="1" fill="none"></path></g><g stroke-linecap="round" transform="translate(10 10) rotate(0 538.5 299)"><path d="M0.26 -0.68 C297.23 -1.17, 594.53 -1.3, 1076.87 0.66 M-0.27 -0.33 C336.47 0.28, 672.84 0.15, 1077.03 -0.2 M1077.52 -0.63 C1079.31 147.67, 1079.24 295.6, 1077.69 598.06 M1077.08 -0.06 C1076.36 120.87, 1076.42 242.25, 1076.95 597.65 M1077.57 598.73 C817.16 598.68, 558.01 598.98, 0.59 597.97 M1076.91 598.02 C722.32 597.21, 366.64 596.69, 0.07 598.28 M-0.23 598.65 C-0.32 400.23, -1.13 202.32, -0.54 0.31 M-0.06 598.39 C-0.54 395.16, -0.74 192.98, -0.26 -0.23" stroke="#000000" stroke-width="1" fill="none"></path></g><g transform="translate(277 25) rotate(0 223 12)"><text x="0" y="19" font-family="Cascadia, Segoe UI Emoji" font-size="20px" fill="#000000" text-anchor="start" style="white-space: pre;" direction="ltr">Viewport / visible part of the browser</text></g><g stroke-linecap="round" transform="translate(268 99) rotate(0 230 32)"><path d="M-0.71 0.79 C127.27 -2.24, 254.22 -2.03, 459.44 -0.77 M0.46 0.02 C152.22 2, 303.88 2.02, 460 -0.14 M460.14 -0.27 C459.53 25.71, 461.08 46.49, 461.48 62.69 M460.63 -0.65 C460.59 22.09, 460.47 43.42, 460.4 64.72 M460.34 63.58 C363.29 64.91, 267.68 64.88, -0.84 64.36 M460.15 64.03 C326.57 63.83, 193.14 63.98, -0.28 63.63 M1.85 63.22 C0.38 45.85, -1.14 27.39, 1.55 -1.91 M-0.58 64.32 C-0.5 50.76, 0.28 37.04, -0.85 -0.57" stroke="#000000" stroke-width="1" fill="none"></path></g><g transform="translate(303 119.5) rotate(0 194 12)"><text x="0" y="19" font-family="Cascadia, Segoe UI Emoji" font-size="20px" fill="#000000" text-anchor="start" style="white-space: pre;" direction="ltr">Some element, let's say paragraph</text></g><g stroke-linecap="round" transform="translate(274 233) rotate(0 229 115)"><path d="M0 0 C0 0, 0 0, 0 0 M0 0 C0 0, 0 0, 0 0 M0.44 6.29 C0.92 4.82, 3.47 2.22, 5.13 0.12 M-0.17 6.15 C1.43 4.67, 3.01 2.54, 4.78 0.55 M1.18 12.22 C0.99 9.01, 5.93 5.14, 9.71 0.44 M0.12 12.72 C2.27 9.18, 4.67 6.13, 10.48 0.25 M0.42 16.74 C6.68 13.79, 10.53 6.33, 13.72 -0.84 M0.67 17.82 C6.39 11.23, 10.9 4.14, 15.44 0.61 M-0.52 25.62 C4.64 19.21, 10.85 10.43, 20.58 -1.85 M-0.44 25.04 C6.44 17.2, 12.63 9.13, 20.85 0.26 M1.43 32.09 C4.64 21.69, 10.66 16.68, 24.6 -1.12 M-0.16 30.57 C10.98 18.43, 19.72 6.76, 26.98 0.54 M-1.34 37.84 C9.36 26.33, 17.51 16.8, 33.01 -1.92 M-0.38 36.37 C9.39 25.05, 21.15 12.63, 31.69 -0.88 M-1.32 41.93 C11.28 30.55, 19.16 18.42, 35.86 0.48 M-0.65 42.33 C11.31 29.01, 24.77 14.62, 36.35 -0.22 M1.42 49.71 C10.83 36.95, 22.78 24.61, 42.63 -0.57 M-0.77 48.16 C14.07 32.42, 27.48 17.14, 42.49 0.06 M-0.73 54.1 C19.4 32.05, 37.99 12.1, 48.34 1.56 M1.08 53.86 C9.31 44.06, 19.84 31.86, 47.83 0.97 M-0.83 60.34 C16.13 43.52, 29.11 29.33, 54.21 -0.65 M0.41 61.4 C17.67 40.16, 35.91 18.73, 52.82 0.68 M-1.42 67.24 C19.31 46.76, 38.96 25.46, 57.77 -0.21 M0.32 67.16 C20.2 46.32, 38.98 22.83, 58.74 0.2 M-1.09 72.14 C18.68 52.23, 39.72 29.7, 65.47 1.02 M0.85 73.83 C12.66 57.75, 26.28 41.74, 64.24 -0.94 M-1.1 79.78 C16.35 62.66, 31.29 40.2, 66.84 0.91 M0.33 78.42 C14.15 63.04, 30 45.72, 69.43 1.03 M-1.41 83.61 C26.82 53.99, 55.48 22.4, 75.08 1.71 M1.27 84.63 C22.46 58.56, 45.84 30.95, 74.39 -0.25 M1.47 90.49 C18.65 70.19, 38.07 49.21, 81.2 -1.3 M0.44 90.58 C17.22 71.27, 37.37 48.48, 79.28 0.5 M-1.58 98.03 C23.65 73.43, 46.12 46.04, 86.63 0.75 M-1.23 97.21 C31.99 60.28, 65.21 21.42, 84.9 -0.23 M1.14 103.46 C29.06 71.41, 53.98 40.96, 89.39 -0.98 M0.69 104.27 C19.66 79.24, 40.79 56.4, 90.71 -0.9 M-0.46 108.51 C24.71 83.48, 49.99 54.88, 96.66 -0.48 M-0.54 110.2 C28.03 79.25, 55.46 48.08, 95.45 0.61 M1.7 116.81 C33 76.41, 64.33 37.37, 98.94 -0.2 M1.11 114.6 C25.86 87.35, 50.39 57.94, 101.16 0.81 M0.03 122.47 C34.96 82.8, 69.93 43.43, 106.64 1.48 M0.49 121.93 C24.9 92.08, 48.39 64.05, 105.76 0.21 M-0.79 127.5 C39.01 85.89, 74.85 40.52, 112.26 -1 M-0.85 127.91 C25.45 98.89, 50.73 67.43, 111.11 -0.93 M1.6 134.64 C38.71 92.13, 75.75 48.05, 114.32 0.89 M0.72 133.47 C46.45 81.34, 92.87 26.53, 116.91 -0.24 M0.64 140.29 C26.71 110.79, 51.93 83.07, 122.75 -1.31 M0.23 140.73 C39.78 92.71, 79.16 45.7, 122.06 0.78 M0.86 147.82 C36.78 107.63, 67 68.4, 128.36 -0.18 M0.02 145.37 C37.44 102.01, 74.35 58.78, 125.98 0.64 M-0.05 152.27 C49.16 94.81, 96.83 39.53, 130.91 0.85 M-0.15 152.36 C47.7 99.8, 94.26 44.2, 132.54 0.28 M0.62 157.75 C55.06 97.24, 107.27 33.13, 136.52 0.62 M0.56 158.41 C50.43 99.33, 104.07 39.64, 138.05 0.89 M0.57 165.6 C45.64 112.93, 91.03 58.59, 143.39 -0.03 M0.15 163.83 C52.93 103.76, 105.35 42.25, 144.01 -0.41 M0.86 169.63 C51.4 111.36, 102.19 53.08, 147.69 -0.72 M-0.11 170.48 C37.88 125.6, 77.46 81.62, 149.01 0.52 M-0.63 177.19 C40.53 128.52, 83.12 84.29, 154.85 -1.72 M-0.48 176.38 C41.97 128.65, 82.96 81.12, 153.49 -0.23 M-1.22 182.98 C57.74 117.01, 115.62 50.59, 159.98 0.82 M0.03 183.18 C47.27 128.85, 92.29 75.89, 158.94 -0.18 M0.28 189.98 C55.35 124.21, 110.67 61.92, 163.03 1.01 M-0.77 188.96 C37.43 148.3, 72.84 107.19, 164.14 -0.25 M1.33 193.69 C47.26 141.78, 93.59 86.48, 169.32 1.61 M0.9 195.16 C60.98 122.84, 123.14 51.49, 169.44 -0.57 M-0.13 202.88 C58.69 131.34, 119.06 59.51, 174.62 0.11 M-0.86 202.02 C35.11 158.21, 72.16 116.73, 174.79 -0.25 M1.31 207.52 C64.78 135.65, 124.61 66.06, 179.12 0.09 M0.13 206.41 C61.99 136.64, 122.33 66.06, 180.41 0.29 M0.19 212.48 C39.33 167.73, 80.69 121.73, 185.48 0.83 M0.38 213.79 C52.48 153.86, 103.47 94.52, 185.2 -0.45 M0.01 218.3 C38.94 174.15, 79.12 127.92, 190.1 -0.56 M0.29 220.25 C38.47 174.02, 77.88 129.46, 190.28 0.55 M1.33 225.51 C72.19 141.45, 147.95 56.64, 197.1 -1.05 M0.12 225.39 C64.58 150.05, 130.25 73.44, 195.94 0.05 M0.32 232.27 C65.96 158.03, 133.31 82.08, 200.59 1.04 M1.07 230.48 C59.68 162.01, 120.68 91.86, 202.03 0.4 M7.11 231.12 C78.14 148.25, 148.4 68.97, 207.19 -0.62 M6.1 231.32 C69.05 158.26, 130.38 87.46, 206.8 0.23 M10.82 230.25 C80.34 150.41, 151.48 68.2, 212.68 -0.91 M11.17 230.49 C75.02 159.24, 136.66 86.76, 211.29 0.32 M17.78 231.46 C90.31 145.68, 167.06 59.51, 218.56 1.01 M17.27 230.39 C94.81 143.42, 173.28 54.5, 216.9 0.22 M20.99 231.81 C89.74 152.66, 157.15 74.39, 223.33 0.95 M21.57 231.38 C78.26 165.38, 134.53 100.92, 222.45 -0.32 M28.03 231.03 C104.29 144.91, 179.4 57.26, 227.4 0.01 M27.91 231.28 C68.43 185.53, 108.89 139.7, 227.56 -0.3 M32.27 230.77 C104.31 150.68, 173.48 70.62, 233.07 0.97 M32.41 231.16 C106.7 144.05, 183.16 57.15, 232.67 -0.4 M37.85 230.49 C77 182.17, 116.9 136.38, 237.17 -0.91 M38.35 230.55 C85.96 177.69, 132.91 124.05, 238.76 0.21 M42.45 229.62 C94.14 172.96, 145.5 110.51, 243.09 0.79 M43.14 230.32 C109.99 151.61, 179.32 71.97, 243.48 0.13 M47.88 229.14 C126.08 142.58, 205.92 52.93, 249.65 1.68 M48.93 230.83 C91.33 182.42, 133.13 133.49, 248.81 0.63 M54.34 230.93 C117.25 154.89, 182.78 80.35, 255.27 0.64 M53.93 230.43 C102.6 174.12, 152.05 118.05, 254.99 0.19 M59.47 230.66 C135.68 141.41, 211.88 53.68, 258.05 -0.99 M60.04 230.8 C120.42 161.53, 182.05 91.45, 259.16 0.26 M64.18 231.53 C107.52 181.3, 152.32 131.97, 266.38 -0.63 M64.26 231.2 C123.21 161.93, 183.38 93.33, 264.44 0.49 M68.83 231.51 C137.71 154.99, 204.83 77.09, 270.01 -1.01 M70.64 230.88 C135.7 153.98, 203.19 77.47, 269.79 0.16 M76.14 231.18 C117.79 180.3, 159.76 128.48, 276.76 0.19 M74.38 230.55 C131.44 165.32, 188.91 98.19, 276.31 -0.81 M81.57 229.68 C138.12 164.55, 196.43 98.97, 280.75 0.88 M81.14 230.43 C153.76 143.75, 228.63 57.07, 281.4 -0.43 M84.94 229.68 C164.61 137.15, 245.05 45.65, 287.44 -0.88 M85.26 230.32 C149.83 157.06, 214.64 83.32, 286.44 -0.87 M92.36 230.42 C173.19 136.28, 253.67 46.19, 290.56 1.08 M90.54 230.54 C157.23 153.35, 223.67 77.58, 291.08 0.23 M96.07 229.78 C146.62 174.86, 194.44 119.01, 297.21 -0.51 M95.73 230.53 C149.61 169.46, 200.82 109.47, 296.48 -0.84 M101.71 229.65 C166.54 154.15, 233.1 78.99, 301.84 -1.04 M101.55 230.55 C174.28 146.44, 248.11 60.89, 302.5 0.61 M105.63 231.37 C152.58 176.13, 198.78 125.09, 308.46 0.29 M106.8 230.84 C169.19 158.75, 232.48 86.25, 308.09 -0.12 M112.76 231.22 C159.2 176.19, 204.33 123.9, 313.32 -0.3 M111.63 230.75 C170.8 161.14, 231.61 93.54, 312.8 0.22 M117.58 231.5 C166.71 173.1, 217.26 114.7, 318.44 -0.84 M117.35 230.49 C165.11 176.75, 213.86 119.89, 318.61 -0.63 M121.58 231.13 C197.01 143.65, 273.43 58.65, 322.97 -0.14 M122.09 231.13 C194.82 147.39, 268.36 63.44, 322.78 -0.33 M129.35 230.16 C204.31 139.38, 282.39 49.14, 328 0.97 M128.46 231.25 C197.43 150.12, 267.54 70.24, 328.32 0.38 M134.25 231.94 C197.54 158.29, 262.17 84.14, 333.77 -1.09 M133.46 231.27 C191.8 165.32, 248.15 100.29, 333.98 0.59 M137.61 230.27 C207.59 151.85, 275.39 71.57, 338.66 0.54 M139.04 230.15 C193.15 166.12, 248.37 102.07, 338.95 0.2 M143.07 231.87 C211.41 153.69, 279.5 75.06, 345.06 -0.7 M143.41 231.11 C222.75 139.11, 301.09 49.2, 344.36 -0.08 M149.8 231.92 C189.88 182.84, 230.79 134.94, 349.05 0.72 M148.75 231.09 C196.04 178.33, 241.15 125.42, 350.15 0.12 M155.47 230.69 C194.49 181.08, 235.57 134.17, 355.37 0.59 M153.96 230.89 C213.19 162.93, 271.34 95.52, 355.49 -0.01 M161.05 229.42 C215.54 166.07, 273.9 101.88, 360.48 0.67 M159.45 230.34 C229.06 150.39, 298.9 70.02, 360.67 0.96 M165.11 229.6 C245.27 140.87, 325.72 49.57, 365.4 -0.47 M165.72 231.22 C207.52 180.46, 252.52 129.87, 365.38 -0.16 M171.5 231.65 C224.99 167.57, 278.72 106.96, 370.04 0.45 M170.86 231.01 C235.88 153.34, 302 78.64, 370.21 0.34 M174.99 231.34 C231.25 166.55, 289.78 100.09, 375.06 -1.34 M174.97 230.14 C230.32 166.79, 285.55 103.07, 377.09 -0.4 M180.52 230.11 C236.97 169.05, 288.62 108.79, 381.98 0.82 M181.98 230.06 C222.63 182.21, 262.16 135.79, 382.04 -0.2 M185.91 231.43 C257.74 145.51, 331.18 62.26, 386.38 0.62 M186.7 230.39 C264.47 141.47, 341.01 53.73, 387.22 0.43 M192.49 230.87 C270.74 136.97, 349.58 48.56, 392.5 1.17 M192.57 229.84 C264.24 147.46, 337.26 65.22, 392.23 -0.22 M196.45 229.8 C237.67 183.86, 279.47 137.03, 397.74 -0.65 M197.25 230.67 C263.42 153.98, 330.13 77.8, 397.45 0.24 M202.35 231.32 C275.63 146.56, 348.05 66.17, 401.42 -0.53 M203.14 230.88 C268.37 155.63, 331.98 80.91, 402.63 -0.37 M208.75 230.76 C267.83 161.77, 327.93 92.24, 409.63 0.47 M207.3 230.07 C277.08 149.55, 346.6 68.86, 408.75 -0.56 M212.96 228.93 C268.6 168.67, 323.17 105.75, 412.11 0.97 M213.47 230.41 C288.62 143.86, 364.52 56.29, 413.71 0.47 M216.96 231.4 C268.43 175.21, 317.52 117.26, 418.9 0.92 M217.58 230.86 C282.48 158.23, 345.47 86.12, 418.51 -0.51 M222.84 230.63 C273.77 173.95, 326.36 114.7, 422.82 0.85 M223.47 230.38 C294.74 149.41, 365.02 68.21, 424.47 0.85 M227.49 230.36 C294.25 154.9, 360.62 78.14, 430.29 0.61 M228.83 231.35 C298.54 150.55, 369.59 70.09, 429.2 0.04 M234.63 232.45 C279.67 176.74, 326.27 122.79, 435.39 -1.35 M234.29 231.55 C277.41 184.19, 318.22 135.99, 433.96 -0.32 M238.72 230.61 C310.49 146.26, 384.59 63.17, 439.11 -0.53 M238.9 230.17 C283.79 177.53, 329.82 125.47, 439.68 0.33 M245.31 229.85 C311.56 157.78, 373.92 83.03, 446.55 1.23 M244.43 230.77 C299.11 169.4, 353.25 106.48, 445.59 0.55 M249.74 230.85 C296.01 176.76, 341.06 123.15, 451.46 0.38 M250.04 230.64 C322.76 148.43, 395.04 65.12, 451.03 -0.75 M254.66 232.04 C305.81 174.4, 355.91 115.47, 456.58 -0.46 M255.21 230.97 C296.8 184.99, 338.74 137.16, 455.55 0.14 M260.29 231.29 C326.83 152.57, 395.05 76.6, 459.13 2.75 M260.15 230.61 C303.9 181.89, 345.58 132.59, 458.75 1.88 M264.56 230.91 C333.73 153.09, 402.41 74.1, 459.91 8.07 M265.84 230.36 C308.15 180.16, 351.62 130.89, 459.28 7.37 M270.8 230.69 C343.93 143.51, 421.39 56.1, 460.15 14.21 M271.54 231.21 C329.86 166.26, 386.19 101.06, 460.32 13.87 M276.21 229.91 C342.71 154.73, 407.25 77.18, 460.85 20.67 M276.24 231.16 C328.88 169.75, 382.16 109.82, 460.03 19.49 M282.47 229.25 C321.99 186.01, 361.25 140.73, 461.11 24.96 M282.12 230.94 C351.19 151.17, 418.54 73.84, 460.29 26.03 M287.03 229.79 C323.37 190.43, 360.7 148.29, 459.06 31.69 M287.13 230.72 C338.7 170.77, 389.48 111.51, 460.24 31.83 M294.17 228.86 C347.23 168.49, 398.63 109.09, 458.9 38.37 M292.8 230.06 C334.61 181.21, 377.6 131.09, 459.77 38.63 M296.47 231.45 C336.74 187.73, 377.31 141.97, 459.03 45.77 M296.89 230.51 C350.29 172.26, 401.85 113.11, 460.32 43.9 M302.09 230.06 C349.94 177.29, 398.38 122.18, 459.15 51.6 M302.95 230.96 C363.45 161.69, 422.14 93.2, 459.23 49.86 M309.79 229.15 C368.99 161.19, 429.17 94.2, 461.16 55.4 M307.97 230.04 C360.56 172.64, 410.49 114.59, 460.28 56.29 M313.03 231.78 C359.51 181.72, 402.34 132.5, 459.81 62.26 M313.61 229.85 C350.51 188.69, 385.92 146.53, 459.47 63.15 M318.04 230.5 C349.6 194.4, 380.16 159.71, 460.44 67.06 M318.78 230.06 C362.04 180.41, 405.61 130.19, 459.18 69.25 M324.89 231.07 C368.13 179.17, 412.45 129.36, 459.6 75.99 M324.22 229.96 C353.59 198.96, 381.91 166.76, 458.99 74.19 M328.02 229.54 C364.48 189.55, 399.19 151.05, 459.2 78.93 M330.34 230.94 C370.74 183.42, 413.07 134.8, 459.54 79.79 M335.54 230.92 C371.18 187.74, 412.39 143.05, 461.49 87.02 M335.42 230.6 C364.49 194.19, 397.02 158.42, 460.48 87.5 M339.55 231.35 C374.16 194.65, 405.01 154.21, 460.69 92.23 M340.73 230.67 C366.11 200.46, 391.65 169.71, 460.09 93.47 M345.19 230.53 C375.61 195.82, 408.87 159.7, 460.42 99.4 M345.94 231.11 C371.66 201.08, 397.98 171.52, 458.93 99.03 M350.65 229.16 C375.71 205.09, 400 174.39, 459.16 107.29 M351.07 230.44 C395.57 181.33, 438.37 130.89, 459.07 104.54 M357.32 229.58 C395.03 189.69, 431.91 145.62, 458.19 109.88 M356.5 231.47 C396.84 182.9, 437.76 136.05, 460.04 111.82 M362.38 232.35 C383.73 202.48, 411.39 172.43, 459.73 117.03 M361.54 230.98 C398.62 187.44, 436.41 145.04, 458.87 117.86 M364.96 232.94 C385.85 209.63, 403.72 187.52, 458.9 123.87 M366.52 231.41 C394.73 197.02, 424.23 162.57, 459.98 123.23 M370.74 230.32 C397.51 199.05, 429.29 165.09, 461.13 127.64 M371.32 230.53 C392.01 205.68, 415.04 181.28, 460.57 130.02 M378.09 231.58 C404.71 197.26, 431.66 166.89, 459.55 136.6 M377.45 231.14 C407.29 196.72, 436.29 162.11, 459.92 135.81 M382.68 228.56 C399.05 211.55, 414.95 191.38, 459.01 143.37 M382.63 230.77 C400.2 210.33, 418.19 190, 459.3 142.05 M387.61 230.5 C403.25 214.25, 417.53 197.2, 458.13 149.61 M386.8 231.33 C413.72 200.68, 438.34 171.42, 460.07 147.84 M392.07 228.62 C409.42 208.01, 428.69 190, 461.32 155.32 M392.74 230.85 C412.79 206.35, 433.2 182, 459.55 154.24 M397.38 232.78 C422.03 208.2, 441.78 182.32, 460.18 159.76 M398.09 231.13 C420.64 204.71, 443.93 179.18, 460.36 160.33 M403.72 232.09 C418.85 213.4, 437.43 194.48, 458.91 166.35 M403.93 231.41 C414.42 217.94, 426.9 204.76, 459.8 167.06 M408.18 231.55 C420.65 218.8, 430.93 207.13, 458.23 171.98 M408.86 230.14 C425.33 212.12, 441.38 193.16, 459.72 171.75 M413.4 228.65 C424.66 217.07, 435.65 207.45, 461.58 179.68 M413.52 230.55 C431.22 209.81, 449.62 191.48, 460.6 177.72 M417.72 230.03 C435.38 213.57, 450 196.24, 459.04 183.99 M418.7 230.44 C434.16 213.52, 450.2 194.31, 459.47 184.78 M423.79 232.04 C433.44 221.64, 445.39 209.31, 460.75 191.82 M425.86 229.81 C434.47 221.21, 443.74 209.49, 459.21 191.14 M428.67 229.46 C436.96 221.14, 445.04 217.16, 458.31 195.34 M429.23 230.58 C441.85 218.27, 452.34 204.79, 459.93 197.34 M436.51 232.03 C445.34 218.11, 456.03 208.88, 460.76 201.34 M436.34 230.25 C444.28 220.23, 453.79 207.71, 460.89 202.71 M440.63 229.17 C446.95 220.99, 454.5 212.13, 460.7 207.88 M440.09 231.59 C446.79 223.01, 454.33 215.36, 460.49 209.05 M447.49 231.26 C450.53 225.68, 455.09 219.37, 458.25 213.63 M446.7 231.1 C450.45 226.22, 454.85 221.19, 460.28 215.06 M450.55 230.61 C453.29 228.42, 456.32 226.31, 458.96 222.12 M451.11 230.86 C453.57 228.97, 454.66 226.65, 460.1 220.48 M456.64 230.83 C456.7 229.99, 457.91 229.65, 459.9 226.94 M456.18 231.01 C456.94 230.33, 457.85 229.4, 459.73 227.22" stroke="#fa5252" stroke-width="0.5" fill="none"></path><path d="M-0.39 -0.51 C139.64 1.37, 276.87 0.6, 458.49 0.94 M0.39 -0.33 C162.56 1.64, 324.65 1.51, 458.2 -0.17 M456.7 0.05 C458.4 45.74, 458.75 92.67, 457.67 229.73 M457.29 0.59 C456.78 85.49, 456.34 171.46, 458.54 230.06 M458.5 229.55 C298.23 229.01, 136.1 227.95, -0.37 229.25 M457.91 230.06 C298.87 231.67, 140.32 231.31, -0.15 230.46 M-0.15 228.47 C-2.09 148.71, -0.76 66.16, -1.52 -0.99 M0.24 230.24 C0 139.94, 0.32 50.8, -0.43 -0.72" stroke="#000000" stroke-width="1" fill="none"></path></g><g transform="translate(345 305.5) rotate(0 170.5 12)"><text x="0" y="19" font-family="Cascadia, Segoe UI Emoji" font-size="20px" fill="#000000" text-anchor="start" style="white-space: pre;" direction="ltr">Every element has a box model</text></g><g stroke-linecap="round" transform="translate(270 510) rotate(0 230 32)"><path d="M-0.47 0.1 C123.56 2.17, 246.99 1.01, 459.82 -0.56 M-0.25 -0.22 C155.17 0.22, 310.52 0.9, 460.18 -0.14 M460.11 -0.43 C460.52 22.94, 459.09 42.25, 458.48 65.28 M459.97 0.2 C461.09 14.12, 460.35 27.9, 459.77 64.19 M460.39 64.62 C341.9 64.57, 224.84 65.46, -0.66 63.15 M460.15 64.35 C297.62 62.9, 135.16 63.11, -0.15 64.21 M1.06 63.52 C1.03 46.2, 0.48 32.21, 0.89 -1.62 M-0.33 64.85 C0.63 44.24, 0.54 25.25, -0.06 0.04" stroke="#000000" stroke-width="1" fill="none"></path></g><g transform="translate(305 530.5) rotate(0 194 12)"><text x="0" y="19" font-family="Cascadia, Segoe UI Emoji" font-size="20px" fill="#000000" text-anchor="start" style="white-space: pre;" direction="ltr">Some element, let's say paragraph</text></g><g stroke-linecap="round" transform="translate(338 299) rotate(0 177 22.5)"><path d="M-1.1 -1.08 L355.11 0.72 L352.75 46.12 L-0.55 44.19" stroke="none" stroke-width="0" fill="#ced4da"></path><path d="M-0.01 -0.78 C86.43 0.52, 171.63 0.78, 353.55 -0.38 M-0.46 0.2 C102.4 1.56, 205.68 0.8, 353.39 0 M353.05 -0.53 C353.29 12.12, 352.95 25.26, 354.97 46.4 M353.81 -0.84 C354.37 13.56, 354.54 28.26, 354.51 45.76 M354.42 46.21 C236.67 48.01, 118.79 47.36, -0.1 43.93 M353.71 45.44 C261.15 45.25, 168.05 45.24, 0.62 44.86 M0.51 45.7 C-0.65 27.2, 0.33 10.15, 0.46 1.15 M-0.69 44.84 C0.7 30.01, -0.07 14.2, -0.77 -0.94" stroke="#000000" stroke-width="1" fill="none"></path></g><g stroke-linecap="round"><g transform="translate(846.7152875498962 220.2053210378159) rotate(0 -78.24409179473764 47.444976220601234)"><path d="M-0.97 0.16 C-27.03 16.02, -130.48 78.7, -156.76 94.37 M0.72 -0.79 C-25.37 15.29, -131.04 79.69, -157.2 95.68" stroke="#000000" stroke-width="1" fill="none"></path></g><g transform="translate(846.7152875498962 220.2053210378159) rotate(0 -78.24409179473764 47.444976220601234)"><path d="M-138.21 73.83 C-144.28 76.71, -149.53 85.02, -155.38 97.55 M-137.76 71.98 C-143.88 78.58, -148 84.82, -157.84 95.59" stroke="#000000" stroke-width="1" fill="none"></path></g><g transform="translate(846.7152875498962 220.2053210378159) rotate(0 -78.24409179473764 47.444976220601234)"><path d="M-127.52 91.35 C-136.29 89.53, -144.36 93.22, -155.38 97.55 M-127.07 89.5 C-136.02 91.2, -143.09 92.6, -157.84 95.59" stroke="#000000" stroke-width="1" fill="none"></path></g></g><g transform="translate(861 193.5) rotate(0 82.5 12)"><text x="0" y="19" font-family="Cascadia, Segoe UI Emoji" font-size="20px" fill="#000000" text-anchor="start" style="white-space: pre;" direction="ltr">Content itself</text></g><g transform="translate(345 310.5) rotate(0 170.5 12)"><text x="0" y="19" font-family="Cascadia, Segoe UI Emoji" font-size="20px" fill="#000000" text-anchor="start" style="white-space: pre;" direction="ltr">Every element has a box model</text></g><g stroke-linecap="round"><g transform="translate(851.1070494629444 477.23595037345774) rotate(0 -71.61952282120478 -34.94600827897426)"><path d="M0.11 0.18 C-23.68 -11.45, -118.95 -58.62, -142.86 -70.08 M-1.3 -0.76 C-25.15 -12.25, -119.58 -57.39, -143.35 -69.02" stroke="#000000" stroke-width="1" fill="none"></path></g><g transform="translate(851.1070494629444 477.23595037345774) rotate(0 -71.61952282120478 -34.94600827897426)"><path d="M-113.19 -64.55 C-123.63 -66.21, -129.67 -67.59, -144.23 -69.16 M-113.55 -65.08 C-124.79 -66.92, -137.33 -68.21, -143.69 -69.01" stroke="#000000" stroke-width="1" fill="none"></path></g><g transform="translate(851.1070494629444 477.23595037345774) rotate(0 -71.61952282120478 -34.94600827897426)"><path d="M-122.12 -46.07 C-129.94 -53.07, -133.41 -59.77, -144.23 -69.16 M-122.48 -46.6 C-130.38 -55.69, -139.46 -64.14, -143.69 -69.01" stroke="#000000" stroke-width="1" fill="none"></path></g></g><g transform="translate(859 396.5) rotate(0 111.5 60)"><text x="0" y="19" font-family="Cascadia, Segoe UI Emoji" font-size="20px" fill="#000000" text-anchor="start" style="white-space: pre;" direction="ltr">Inner space </text><text x="0" y="43" font-family="Cascadia, Segoe UI Emoji" font-size="20px" fill="#000000" text-anchor="start" style="white-space: pre;" direction="ltr">between the border </text><text x="0" y="67" font-family="Cascadia, Segoe UI Emoji" font-size="20px" fill="#000000" text-anchor="start" style="white-space: pre;" direction="ltr">and content is</text><text x="0" y="91" font-family="Cascadia, Segoe UI Emoji" font-size="20px" fill="#000000" text-anchor="start" style="white-space: pre;" direction="ltr">paddings</text><text x="0" y="115" font-family="Cascadia, Segoe UI Emoji" font-size="20px" fill="#000000" text-anchor="start" style="white-space: pre;" direction="ltr"></text></g><g stroke-linecap="round"><g transform="translate(904.3035591838234 142.5) rotate(0 -86.79847907899796 43.646356783634985)"><path d="M-0.63 0.51 C-29.54 14.97, -144.99 71.99, -174.05 86.37 M1.24 -0.27 C-27.75 14.37, -145.28 72.85, -174.83 87.57" stroke="#000000" stroke-width="1" fill="none"></path></g><g transform="translate(904.3035591838234 142.5) rotate(0 -86.79847907899796 43.646356783634985)"><path d="M-153.33 66.33 C-160.5 70.12, -164.9 78.27, -176.04 89.54 M-153.52 65.82 C-161.12 73.68, -168.99 81.38, -174.81 87.65" stroke="#000000" stroke-width="1" fill="none"></path></g><g transform="translate(904.3035591838234 142.5) rotate(0 -86.79847907899796 43.646356783634985)"><path d="M-144.18 84.7 C-153.58 83.85, -160.26 87.42, -176.04 89.54 M-144.37 84.19 C-155.51 85.06, -166.84 85.82, -174.81 87.65" stroke="#000000" stroke-width="1" fill="none"></path></g></g><g transform="translate(805 87.5) rotate(0 129 24)"><text x="0" y="19" font-family="Cascadia, Segoe UI Emoji" font-size="20px" fill="#000000" text-anchor="start" style="white-space: pre;" direction="ltr">There is always border</text><text x="0" y="43" font-family="Cascadia, Segoe UI Emoji" font-size="20px" fill="#000000" text-anchor="start" style="white-space: pre;" direction="ltr">even if invisible</text></g><g transform="translate(27 211.5) rotate(0 117 96)"><text x="0" y="19" font-family="Cascadia, Segoe UI Emoji" font-size="20px" fill="#000000" text-anchor="start" style="white-space: pre;" direction="ltr">This grey area</text><text x="0" y="43" font-family="Cascadia, Segoe UI Emoji" font-size="20px" fill="#000000" text-anchor="start" style="white-space: pre;" direction="ltr">are margins,</text><text x="0" y="67" font-family="Cascadia, Segoe UI Emoji" font-size="20px" fill="#000000" text-anchor="start" style="white-space: pre;" direction="ltr">the outer space</text><text x="0" y="91" font-family="Cascadia, Segoe UI Emoji" font-size="20px" fill="#000000" text-anchor="start" style="white-space: pre;" direction="ltr">around the element,</text><text x="0" y="115" font-family="Cascadia, Segoe UI Emoji" font-size="20px" fill="#000000" text-anchor="start" style="white-space: pre;" direction="ltr">it will push </text><text x="0" y="139" font-family="Cascadia, Segoe UI Emoji" font-size="20px" fill="#000000" text-anchor="start" style="white-space: pre;" direction="ltr">surrounding elements</text><text x="0" y="163" font-family="Cascadia, Segoe UI Emoji" font-size="20px" fill="#000000" text-anchor="start" style="white-space: pre;" direction="ltr">further from the </text><text x="0" y="187" font-family="Cascadia, Segoe UI Emoji" font-size="20px" fill="#000000" text-anchor="start" style="white-space: pre;" direction="ltr">current element</text></g><g stroke-linecap="round"><g transform="translate(275 447) rotate(0 -127.39186198490205 -1.2701437212526798)"><path d="M0.5 -0.36 C-41.7 -0.55, -211.94 -2.06, -254.22 -2.18 M-0.7 -1.59 C-42.98 -1.51, -213.14 -0.51, -255.28 -0.74" stroke="#000000" stroke-width="1" fill="none"></path></g><g transform="translate(275 447) rotate(0 -127.39186198490205 -1.2701437212526798)"><path d="M-227.69 -11.4 C-233.49 -7.39, -237.68 -8.32, -256.35 -0.44 M-226.27 -11.66 C-235.87 -7.24, -242.8 -4.22, -254.43 -1.06" stroke="#000000" stroke-width="1" fill="none"></path></g><g transform="translate(275 447) rotate(0 -127.39186198490205 -1.2701437212526798)"><path d="M-227.67 9.12 C-233.3 8.77, -237.5 3.47, -256.35 -0.44 M-226.25 8.86 C-235.8 7.33, -242.74 4.4, -254.43 -1.06" stroke="#000000" stroke-width="1" fill="none"></path></g></g><g stroke-linecap="round"><g transform="translate(403 234) rotate(0 0.7497055388986951 -35.4639318205416)"><path d="M-0.36 -0.02 C-0.05 -11.8, 1.8 -59.27, 1.86 -70.91 M1.65 -1.07 C1.87 -12.71, 1.24 -58.62, 1.37 -69.85" stroke="#000000" stroke-width="1" fill="none"></path></g><g transform="translate(403 234) rotate(0 0.7497055388986951 -35.4639318205416)"><path d="M11.67 -40.25 C7.12 -51.82, 5.75 -57.32, 2.22 -69.35 M11.4 -42.47 C7.96 -50.68, 5.19 -60.34, 2.27 -69.08" stroke="#000000" stroke-width="1" fill="none"></path></g><g transform="translate(403 234) rotate(0 0.7497055388986951 -35.4639318205416)"><path d="M-8.85 -40.2 C-7.21 -51.72, -2.4 -57.24, 2.22 -69.35 M-9.12 -42.41 C-5.93 -50.79, -2.06 -60.47, 2.27 -69.08" stroke="#000000" stroke-width="1" fill="none"></path></g></g><g stroke-linecap="round"><g transform="translate(412.9565217391305 464) rotate(0 -0.8245750114645602 22.134277854678203)"><path d="M0.96 -0.05 C0.4 7.4, -2.09 37.98, -2.61 45.39 M0 -1.12 C-0.23 5.89, 0.26 35.71, -0.24 43.47" stroke="#000000" stroke-width="1" fill="none"></path></g><g transform="translate(412.9565217391305 464) rotate(0 -0.8245750114645602 22.134277854678203)"><path d="M-7.61 21.08 C-4.1 29.59, -3.06 37.84, 0.36 43.57 M-8.44 21.29 C-5.68 30.19, -3.2 36.76, -0.37 44.09" stroke="#000000" stroke-width="1" fill="none"></path></g><g transform="translate(412.9565217391305 464) rotate(0 -0.8245750114645602 22.134277854678203)"><path d="M7.79 21.38 C5.69 29.91, 1.12 38.04, 0.36 43.57 M6.97 21.59 C4.45 30.5, 1.64 36.96, -0.37 44.09" stroke="#000000" stroke-width="1" fill="none"></path></g></g><g transform="translate(520 403.5) rotate(0 82.5 12)"><text x="0" y="19" font-family="Cascadia, Segoe UI Emoji" font-size="20px" fill="#000000" text-anchor="start" style="white-space: pre;" direction="ltr">padding-bottom</text></g><g stroke-linecap="round"><g transform="translate(453 236) rotate(0 -0.8781728035444303 29.278414972918114)"><path d="M-0.59 -0.16 C-1.06 9.62, -2.91 48.77, -3.05 58.89 M1.3 -1.29 C1.21 8.58, -0.36 49.87, -0.89 59.85" stroke="#000000" stroke-width="1" fill="none"></path></g><g transform="translate(453 236) rotate(0 -0.8781728035444303 29.278414972918114)"><path d="M-10.17 29.48 C-9.19 40.18, -3.84 48.41, -2.34 59.56 M-9.59 31.45 C-7.82 40.18, -5.06 47.94, -0.52 59.25" stroke="#000000" stroke-width="1" fill="none"></path></g><g transform="translate(453 236) rotate(0 -0.8781728035444303 29.278414972918114)"><path d="M10.33 30.38 C5.59 40.73, 5.21 48.71, -2.34 59.56 M10.92 32.35 C6.53 40.73, 3.14 48.21, -0.52 59.25" stroke="#000000" stroke-width="1" fill="none"></path></g></g><g transform="translate(480 255.5) rotate(0 65 12)"><text x="0" y="19" font-family="Cascadia, Segoe UI Emoji" font-size="20px" fill="#000000" text-anchor="start" style="white-space: pre;" direction="ltr">padding-top</text></g><g stroke-linecap="round"><g transform="translate(276 335) rotate(0 29.78645876971541 -1.1188880659640006)"><path d="M0.06 0.93 C10.22 0.54, 50.96 -2.32, 60.94 -3.16 M-1.37 0.37 C8.63 0.25, 49.35 -1.07, 59.97 -1.71" stroke="#000000" stroke-width="1" fill="none"></path></g><g transform="translate(276 335) rotate(0 29.78645876971541 -1.1188880659640006)"><path d="M33.8 9.69 C40.28 4.63, 46.83 2.91, 61 -1.97 M31.96 9.59 C38.66 6.68, 45.09 4.87, 59.21 -0.77" stroke="#000000" stroke-width="1" fill="none"></path></g><g transform="translate(276 335) rotate(0 29.78645876971541 -1.1188880659640006)"><path d="M32.9 -10.81 C39.5 -9.79, 46.32 -5.43, 61 -1.97 M31.05 -10.91 C37.81 -9.13, 44.45 -6.23, 59.21 -0.77" stroke="#000000" stroke-width="1" fill="none"></path></g></g><g transform="translate(281 360.5) rotate(0 71 12)"><text x="0" y="19" font-family="Cascadia, Segoe UI Emoji" font-size="20px" fill="#000000" text-anchor="start" style="white-space: pre;" direction="ltr">padding-left</text></g><g stroke-linecap="round"><g transform="translate(512 463) rotate(0 -2.3334898136556035 -57.30700966318602)"><path d="M0.08 -0.31 C-0.69 -19, -4.1 -93.81, -4.75 -112.46 M-1.34 -1.52 C-1.72 -20.53, -1.91 -95.52, -2.43 -114.3" stroke="#000000" stroke-width="1" fill="none"></path></g><g transform="translate(512 463) rotate(0 -2.3334898136556035 -57.30700966318602)"><path d="M7.7 -87.5 C6.08 -94.13, 3.31 -102.1, -2 -115.85 M8.27 -86.15 C5.35 -91.64, 2.74 -99.86, -2.38 -115.11" stroke="#000000" stroke-width="1" fill="none"></path></g><g transform="translate(512 463) rotate(0 -2.3334898136556035 -57.30700966318602)"><path d="M-12.82 -87.22 C-8.44 -93.95, -5.21 -101.99, -2 -115.85 M-12.25 -85.87 C-10.5 -91.61, -8.44 -99.89, -2.38 -115.11" stroke="#000000" stroke-width="1" fill="none"></path></g></g><g stroke-linecap="round"><g transform="translate(731 337) rotate(0 -18.118534029000443 0.06354230161252872)"><path d="M0.64 -0.24 C-5.49 0, -30 1.15, -36.3 1.54 M-0.48 -1.41 C-6.75 -1.54, -30.63 -0.59, -36.88 -0.3" stroke="#000000" stroke-width="1" fill="none"></path></g><g transform="translate(731 337) rotate(0 -18.118534029000443 0.06354230161252872)"><path d="M-20.13 -6.26 C-24.72 -5.09, -29.65 -1.35, -35.17 -0.45 M-19.89 -7.67 C-24.82 -4.61, -29.99 -3.81, -36.64 -0.34" stroke="#000000" stroke-width="1" fill="none"></path></g><g transform="translate(731 337) rotate(0 -18.118534029000443 0.06354230161252872)"><path d="M-19.6 6.39 C-24.39 3.27, -29.5 2.73, -35.17 -0.45 M-19.36 4.98 C-24.44 4.3, -29.77 1.36, -36.64 -0.34" stroke="#000000" stroke-width="1" fill="none"></path></g></g><g transform="translate(741 329.5) rotate(0 76.5 12)"><text x="0" y="19" font-family="Cascadia, Segoe UI Emoji" font-size="20px" fill="#000000" text-anchor="start" style="white-space: pre;" direction="ltr">padding-right</text></g><g transform="translate(73 453.5) rotate(0 65 12)"><text x="0" y="19" font-family="Cascadia, Segoe UI Emoji" font-size="20px" fill="#000000" text-anchor="start" style="white-space: pre;" direction="ltr">margin-left</text></g><g transform="translate(430 476.5) rotate(0 76.5 12)"><text x="0" y="19" font-family="Cascadia, Segoe UI Emoji" font-size="20px" fill="#000000" text-anchor="start" style="white-space: pre;" direction="ltr">margin-bottom</text></g><g transform="translate(417 197.5) rotate(0 59 12)"><text x="0" y="19" font-family="Cascadia, Segoe UI Emoji" font-size="20px" fill="#000000" text-anchor="start" style="white-space: pre;" direction="ltr">margin-top</text></g><g stroke-linecap="round"><g transform="translate(735 309) rotate(0 174.76240909392948 1.186908772898363)"><path d="M0.39 -0.65 C58.24 -0.53, 290.15 1.11, 348.14 1.66 M-0.87 1.63 C57.28 1.84, 292.38 3.19, 350.4 3.01" stroke="#000000" stroke-width="1" fill="none"></path></g><g transform="translate(735 309) rotate(0 174.76240909392948 1.186908772898363)"><path d="M321.1 11.78 C332.31 8.09, 344.68 6.1, 351.67 2.39 M321.74 13.77 C329.16 10.6, 337.8 7.03, 351.13 2.71" stroke="#000000" stroke-width="1" fill="none"></path></g><g transform="translate(735 309) rotate(0 174.76240909392948 1.186908772898363)"><path d="M321.15 -8.74 C332.5 -4.58, 344.85 1.27, 351.67 2.39 M321.78 -6.76 C329.37 -4.38, 338 -2.4, 351.13 2.71" stroke="#000000" stroke-width="1" fill="none"></path></g></g><g transform="translate(825 284.5) rotate(0 71 12)"><text x="0" y="19" font-family="Cascadia, Segoe UI Emoji" font-size="20px" fill="#000000" text-anchor="start" style="white-space: pre;" direction="ltr">margin-right</text></g></svg>