<svg version="1.1" xmlns="http://www.w3.org/2000/svg" viewBox="0 0 889.5652173913044 772.96051974013" width="1779.1304347826087" height="1545.92103948026">
  <!-- svg-source:excalidraw -->
  
  <defs>
    <style>
      @font-face {
        font-family: "Virgil";
        src: url("https://excalidraw.com/Virgil.woff2");
      }
      @font-face {
        font-family: "Cascadia";
        src: url("https://excalidraw.com/Cascadia.woff2");
      }
    </style>
  </defs>
  <rect x="0" y="0" width="889.5652173913044" height="772.96051974013" fill="#ffffff"></rect><g stroke-linecap="round" transform="translate(10 321.6561719140433) rotate(0 434.7826086956522 220.65217391304338)"><path d="M-1.12 0.4 C284.69 -7.11, 570.59 -7.29, 868.84 -0.89 M-0.25 0.37 C224.8 -2.11, 448.95 -1.99, 870.18 0.6 M868.57 0.11 C867.28 130.28, 867.02 258.68, 867.65 439.95 M870.47 0.7 C866.51 150.81, 866.3 302.53, 870.17 441.29 M868.59 440.53 C569.76 438.53, 269.19 436.93, -0.82 440.77 M869.8 440.69 C528.49 438.62, 185.85 438.28, 0.34 441.14 M1.82 439.77 C-0.59 306.22, -2.37 171.71, 1.86 0.31 M-0.78 441.39 C-3.48 266.85, -2.71 94.39, -0.49 0.07" stroke="#000000" stroke-width="1" fill="none"></path></g><g stroke-linecap="round" transform="translate(23.04347826086962 401.0971657028632) rotate(0 189.1304347826087 124.00621118012396)"><path d="M0.61 -0.44 C132.94 4.15, 267.15 2.09, 376.92 -1.01 M0.56 0.77 C127.54 1.96, 255.62 2.33, 379.16 -0.1 M378.44 -2.07 C378.32 66.1, 377.88 134.07, 376.03 249.38 M379.41 -0.62 C379.63 58.32, 381.14 119.59, 378.23 248.76 M377.1 249.25 C299.9 246.54, 217.04 244, -0.81 250.25 M377.34 248.63 C243.4 248.23, 108.32 249.88, -0.24 248.09 M-2.52 249.15 C-3.27 164.6, -2.29 87.84, 0.51 3.08 M0.15 248.3 C-3.77 154.57, -1.46 57.21, 0.12 1.54" stroke="#000000" stroke-width="1" fill="none"></path></g><g stroke-linecap="round"><g transform="translate(46.26691043573976 362.4341928312739) rotate(0 395.5426830553939 -0.8519210830525026)"><path d="M0.71 -0.51 C131.64 0.09, 656.85 1.69, 788.02 1.65 M-2.35 -3.25 C129.26 -3.33, 660.82 -3.58, 793.44 -2.76" stroke="#000000" stroke-width="1" fill="none"></path></g></g><g stroke-linecap="round"><g transform="translate(449.13043478260875 466.22138930534777) rotate(0 196.27072803485981 -0.4574640668379004)"><path d="M-0.51 -1.8 C65.94 -2.64, 330.96 -3.98, 396.77 -4.3 M-4.23 3.39 C62.13 2.78, 329.12 -1.02, 395.14 -1.83" stroke="#000000" stroke-width="1" fill="none"></path></g></g><g stroke-linecap="round"><g transform="translate(446.9565217391304 561.8735632183913) rotate(0 198.48198128837936 -1.1617061986224826)"><path d="M-1.8 1.12 C63.67 0.63, 327.54 -2.7, 393.52 -3.44 M2.41 -0.74 C68.69 -0.82, 333.93 -0.48, 398.77 -0.5" stroke="#000000" stroke-width="1" fill="none"></path></g></g><g stroke-linecap="round"><g transform="translate(451.3043478260871 611.8735632183913) rotate(0 196.3331198738872 -0.42371005540593387)"><path d="M1.12 -2.13 C66.94 -2.45, 328.82 -3.9, 394.38 -3.73 M-1.72 2.88 C63.66 3.07, 325.83 0.55, 391.46 -0.94" stroke="#000000" stroke-width="1" fill="none"></path></g></g><g stroke-linecap="round"><g transform="translate(446.9565217391304 411.87356321839127) rotate(0 198.76391279835093 0.43051062544716956)"><path d="M-2.13 -1.27 C63.85 -2.01, 327.62 -3.33, 394.1 -3.35 M1.91 4.21 C68.98 3.74, 334.06 -0.01, 399.66 -0.36" stroke="#000000" stroke-width="1" fill="none"></path></g></g><g stroke-linecap="round"><g transform="translate(449.1304347826085 511.87356321839127) rotate(0 196.6023326772063 -0.8810778194861371)"><path d="M-1.27 -1.55 C64.29 -1.38, 328.19 -0.86, 394.47 -1.11 M3.24 3.78 C68.21 3.28, 326.3 -4.84, 391.6 -5.54" stroke="#000000" stroke-width="1" fill="none"></path></g></g><g stroke-linecap="round"><g transform="translate(446.9565217391305 659.6996501749128) rotate(0 197.5832701193898 -3.598974016104819)"><path d="M-1.55 -1.18 C64.92 -1.2, 330.66 -1.47, 396.72 -1.42 M2.8 -4.29 C69.19 -5.08, 330.11 -5.78, 395.06 -6.02" stroke="#000000" stroke-width="1" fill="none"></path></g></g><g stroke-linecap="round"><g transform="translate(315.79877504094196 127.66516741629172) rotate(0 -30.810440677540413 176.71817922702252)"><path d="M-1.18 1.07 C-11.49 59.84, -52.93 292.32, -63.17 351.1 M3.38 -0.82 C-7.13 58.5, -53.81 295.93, -65 354.26" stroke="#000000" stroke-width="1" fill="none"></path></g><g transform="translate(315.79877504094196 127.66516741629172) rotate(0 -30.810440677540413 176.71817922702252)"><path d="M-68.17 325.71 C-70.06 334.06, -65.09 338.57, -63.17 353.69 M-70.16 323.35 C-68.48 335.91, -66.98 348.58, -66.53 355.61" stroke="#000000" stroke-width="1" fill="none"></path></g><g transform="translate(315.79877504094196 127.66516741629172) rotate(0 -30.810440677540413 176.71817922702252)"><path d="M-48.03 329.62 C-55 336.81, -55.17 340.32, -63.17 353.69 M-50.02 327.26 C-55.98 338.32, -62.07 349.51, -66.53 355.61" stroke="#000000" stroke-width="1" fill="none"></path></g></g><g transform="translate(33.77436281859042 21.599950024987713) rotate(0 177.5 50)"><text x="177.5" y="18" font-family="Virgil, Segoe UI Emoji" font-size="20px" fill="#000000" text-anchor="middle" style="white-space: pre;" direction="ltr">-- if we have element with text</text><text x="177.5" y="43" font-family="Virgil, Segoe UI Emoji" font-size="20px" fill="#000000" text-anchor="middle" style="white-space: pre;" direction="ltr">overflowing it the best choice is to </text><text x="177.5" y="68" font-family="Virgil, Segoe UI Emoji" font-size="20px" fill="#000000" text-anchor="middle" style="white-space: pre;" direction="ltr">add float to the element and text</text><text x="177.5" y="93" font-family="Virgil, Segoe UI Emoji" font-size="20px" fill="#000000" text-anchor="middle" style="white-space: pre;" direction="ltr">will go around it immediately</text></g><g stroke-linecap="round" transform="translate(25.006496751624184 9.999999999999993) rotate(0 194.82758620689663 64.94252873563232)"><path d="M-0.72 1.08 C101.99 -1.92, 202.08 -1.56, 391.45 1.75 M-0.58 0.06 C112.87 3.85, 226.32 3.69, 388.53 -0.8 M393.28 2.81 C386.56 44.4, 385.69 92.48, 392.1 129.82 M388.44 -0.96 C388.41 46.63, 388.47 89.52, 388.63 129.22 M390.35 128.1 C237.83 127.69, 81.42 126.71, 0.98 129.41 M390.73 128.99 C270.77 133.57, 150.45 133.92, 1.09 130.07 M-3.15 130.24 C-1.47 76.31, 1.63 30.76, -1.98 0.3 M1.8 131.05 C0.51 78.55, -1.97 25.75, -1.61 0.77" stroke="#000000" stroke-width="1" fill="none"></path></g><g stroke-linecap="round"><g transform="translate(34.28316058496648 694.4675426211057) rotate(0 395.36641780331036 1.2008066365566492)"><path d="M-0.86 1.3 C130.89 1.12, 659.6 -0.11, 791.6 -0.31 M3.86 -0.47 C135.31 -0.31, 659.3 2.29, 790.32 2.87" stroke="#000000" stroke-width="1" fill="none"></path></g></g><g stroke-linecap="round"><g transform="translate(37.14030344210943 729.4492276027905) rotate(0 393.7707563120802 -0.2805939418434491)"><path d="M1.3 1.78 C132.67 2.22, 657.63 1.66, 788.99 1.8 M-1.45 0.27 C129.41 -0.05, 654.82 -2.19, 786.3 -2.51" stroke="#000000" stroke-width="1" fill="none"></path></g></g><g transform="translate(310.60669665167313 214.34282858570694) rotate(0 59 12)"><text x="0" y="19" font-family="Cascadia, Segoe UI Emoji" font-size="20px" fill="#000000" text-anchor="start" style="white-space: pre;" direction="ltr">float:left</text></g></svg>